<?xml version="1.0" standalone="no"?><!DOCTYPE svg PUBLIC "-//W3C//DTD SVG 1.1//EN" "http://www.w3.org/Graphics/SVG/1.1/DTD/svg11.dtd"><svg t="1703689749348" class="icon" viewBox="0 0 1029 1024" version="1.1" xmlns="http://www.w3.org/2000/svg" p-id="8083" width="514.5" height="512" xmlns:xlink="http://www.w3.org/1999/xlink"><path d="M504.669091 966.865455a99.84 99.84 0 0 1-68.887273-27.578182 28.625455 28.625455 0 0 1-2.909091-3.258182L233.658182 679.330909a40.843636 40.843636 0 0 0-26.88-10.007273H145.454545A122.298182 122.298182 0 0 1 23.272727 546.909091v-81.454546a122.298182 122.298182 0 0 1 122.181818-122.181818h61.207273a40.96 40.96 0 0 0 26.88-10.007272L432.989091 75.752727a27.578182 27.578182 0 0 1 2.909091-3.258182A100.770909 100.770909 0 0 1 523.636364 46.545455a94.370909 94.370909 0 0 1 69.003636 52.48 113.454545 113.454545 0 0 1 11.636364 49.221818v715.52a113.92 113.92 0 0 1-7.796364 41.658182 96.581818 96.581818 0 0 1-69.818182 58.996363 100.887273 100.887273 0 0 1-21.992727 2.443637zM477.090909 898.443636a42.007273 42.007273 0 0 0 36.654546 9.192728 38.050909 38.050909 0 0 0 27.810909-23.272728 55.970909 55.970909 0 0 0 3.84-20.48v-715.636363a55.738182 55.738182 0 0 0-5.469091-24.203637 36.654545 36.654545 0 0 0-27.112728-20.247272 42.705455 42.705455 0 0 0-35.723636 9.658181L278.109091 370.385455a27.578182 27.578182 0 0 1-2.909091 3.258181 98.792727 98.792727 0 0 1-68.421818 27.345455H145.454545A64.116364 64.116364 0 0 0 81.454545 465.454545v81.454546a64.116364 64.116364 0 0 0 64 64h61.207273a98.792727 98.792727 0 0 1 68.421818 27.345454 28.625455 28.625455 0 0 1 2.909091 3.258182z" fill="#2c2c2c" p-id="8084"></path><path d="M586.24 667.694545v-58.181818a103.68 103.68 0 0 0 0-207.36v-58.181818a161.861818 161.861818 0 0 1 0 323.723636z" fill="#2c2c2c" p-id="8085"></path><path d="M837.818182 795.578182a28.974545 28.974545 0 0 1-17.687273-6.050909L733.090909 722.967273a29.090909 29.090909 0 0 1 34.909091-46.545455l86.923636 66.676364A29.090909 29.090909 0 0 1 837.818182 795.578182zM1000.727273 535.272727H877.847273a29.090909 29.090909 0 0 1 0-58.181818H1000.727273a29.090909 29.090909 0 0 1 0 58.181818zM751.243636 340.945455A29.090909 29.090909 0 0 1 733.090909 288.698182l86.923636-66.676364a29.090909 29.090909 0 0 1 34.909091 46.545455L768 335.243636a28.974545 28.974545 0 0 1-16.756364 5.701819z" fill="#2c2c2c" p-id="8086"></path></svg>