<?xml version="1.0" standalone="no"?><!DOCTYPE svg PUBLIC "-//W3C//DTD SVG 1.1//EN" "http://www.w3.org/Graphics/SVG/1.1/DTD/svg11.dtd"><svg t="1703579527159" class="icon" viewBox="0 0 1266 1024" version="1.1" xmlns="http://www.w3.org/2000/svg" p-id="4305" xmlns:xlink="http://www.w3.org/1999/xlink" width="247.265625" height="200"><path d="M416.442927 296.736661L442.294985 224.800501H358.556798a218.618487 218.618487 0 0 0-112.40025 56.200125 514.793146 514.793146 0 0 0-101.722226 121.39227 41.588093 41.588093 0 0 0 28.100062 52.266116h3.372008c28.662064 3.372008 878.969957-23.042051 878.969957-23.042051l12.926029-29.786066-756.453685 15.174033 46.646104-119.706266z" fill="#2c2c2c" p-id="4306"></path><path d="M656.417462 233.230519L456.345016 224.800501l-56.200125 168.600375h81.490181l17.422039-46.084103 39.340088 45.522102h56.200125l11.802026-28.100063h-34.282076l-15.736035-20.794046L618.201376 337.200751z m-70.812158 64.068143H515.355147l14.050032-30.348068h67.44015zM676.649507 233.230519l-57.324128 153.988343h202.32045l17.98404-46.084102h-115.772257l24.166054-63.506142h116.89626l16.860037-37.092082-205.130456-7.306017zM900.326005 242.222539l215.80848 4.49601-11.240025 33.720075h-125.88828L955.402127 340.010757l130.946292-0.562001-17.98404 46.646104h-221.990494l53.95212-143.872321z" fill="#2c2c2c" p-id="4307"></path><path d="M637.87142 0c-288.306642 0-522.661164 157.922352-522.661163 351.812783s234.354522 351.250782 522.661163 351.250782 522.661164-157.36035 522.661164-351.250782S926.178062 0 637.87142 0z m403.516899 139.37631c-33.720075 10.116023-68.002151 19.108043-102.284228 26.414059a346.192771 346.192771 0 0 0-112.40025-112.40025 212.436473 212.436473 0 0 0 24.166054-14.612033 536.149194 536.149194 0 0 1 190.518424 100.598224z m-112.400251 28.100063c-41.026091 8.430019-82.052183 14.050031-123.078274 18.546041a372.044828 372.044828 0 0 0-46.646103-104.532233 494.561101 494.561101 0 0 0 56.200125-23.604052 354.060788 354.060788 0 0 1 112.40025 112.40025zM839.067868 35.96808l-21.918049 12.364028a367.548818 367.548818 0 0 0-74.746166-32.596073 703.063565 703.063565 0 0 1 96.664215 20.232045z m-30.910069 16.860038a357.994797 357.994797 0 0 1-52.828117 21.356047 179.8404 179.8404 0 0 0-67.44015-62.382139 351.250782 351.250782 0 0 1 120.268267 41.026092z m-168.600375-44.398099a141.062314 141.062314 0 0 1 106.780238 68.002151 328.770732 328.770732 0 0 1-106.780238 14.050031z m0 90.482201h6.182014a354.060788 354.060788 0 0 0 105.656235-15.736035 361.928806 361.928806 0 0 1 46.646104 102.846229 1494.923329 1494.923329 0 0 1-158.484353 6.744015z m-112.40025-18.546041a393.400876 393.400876 0 0 0 107.90424 18.546041v94.41621a1446.591221 1446.591221 0 0 1-157.36035-9.554021 353.498787 353.498787 0 0 1 47.770106-103.40823z m-56.200125 102.846229c-46.646104-5.058011-87.672195-11.240025-123.078274-17.422039A353.498787 353.498787 0 0 1 463.651032 56.200125a404.0789 404.0789 0 0 0 56.200125 22.48005 382.722852 382.722852 0 0 0-50.580112 104.532233z m61.258136-112.40025a137.128305 137.128305 0 0 1 101.160225-61.820138v81.490181a398.458887 398.458887 0 0 1-102.846229-17.422038z m-7.868018 0A393.400876 393.400876 0 0 1 472.081051 50.018111a364.738812 364.738812 0 0 1 115.772258-38.216085A180.964403 180.964403 0 0 0 522.661164 70.250156z m10.116023-56.200125a352.936786 352.936786 0 0 0-71.374159 30.910068l-20.232045-11.240025a823.331833 823.331833 0 0 1 89.9202-18.546041z m-102.846229 22.48005a189.956423 189.956423 0 0 0 23.042051 13.48803A354.62279 354.62279 0 0 0 337.200751 164.104365c-56.200125-9.554021-91.606204-19.108043-105.656235-22.48005A542.331208 542.331208 0 0 1 431.616961 37.092083zM230.420513 562.001251c14.050031-3.934009 51.704115-13.48803 106.780238-23.042051a351.250782 351.250782 0 0 0 117.458261 112.40025c-11.240025 5.620013-19.108043 10.678024-23.042051 12.926029A542.331208 542.331208 0 0 1 230.420513 562.001251z m539.521201 45.522102a480.51107 480.51107 0 0 0 38.216085-89.358199c40.46409 4.49601 81.490181 10.116023 123.078274 18.546041a346.192771 346.192771 0 0 1-112.40025 112.40025 350.12678 350.12678 0 0 0-56.200125-23.604052z m28.100063-86.548193c-11.802026 30.348068-24.728055 60.134134-39.340088 89.358199l-6.182013 10.116022a362.490807 362.490807 0 0 0-112.400251-15.736035v-95.540212a1494.923329 1494.923329 0 0 1 158.484353 6.744015 12.364028 12.364028 0 0 0 0 4.49601z m-164.666367-3.934009v88.234197a393.400876 393.400876 0 0 0-107.90424 18.546041l-3.934009-5.620013a913.252033 913.252033 0 0 1-42.712095-92.168205v-6.182014c47.770106-4.49601 100.598224-8.430019 156.236348-8.99202z m-123.640275 95.540213l8.430019 13.48803a404.0789 404.0789 0 0 0-56.200125 22.48005 347.316773 347.316773 0 0 1-118.020263-112.40025c35.406079-6.182014 76.994171-12.364028 123.078274-17.422039a455.221014 455.221014 0 0 0 42.712095 93.854209z m-66.878149 56.200125a148.36833 148.36833 0 0 1 20.794046-11.240025 420.376936 420.376936 0 0 0 69.126154 29.786066 706.997574 706.997574 0 0 1-89.9202-17.98404z m29.786066-15.736035a387.780863 387.780863 0 0 1 50.018112-20.232045 184.898412 184.898412 0 0 0 65.192145 56.200125 347.316773 347.316773 0 0 1-115.210257-35.406079z m56.200126-23.042051a393.400876 393.400876 0 0 1 102.284227-17.422039v79.242176a138.252308 138.252308 0 0 1-100.036222-61.258136z m112.40025-17.98404a363.052808 363.052808 0 0 1 106.780238 14.612032 140.500313 140.500313 0 0 1-106.780238 67.44015z m112.40025 16.860037a357.994797 357.994797 0 0 1 52.828118 21.356048 350.12678 350.12678 0 0 1-120.268268 40.46409 191.080425 191.080425 0 0 0 69.126154-61.258137z m-12.926029 56.200125a401.268893 401.268893 0 0 0 74.746167-32.596072l21.918048 12.364027a779.495736 779.495736 0 0 1-94.978211 23.042052z m107.342239-23.604052l-24.166054-14.050031a357.432796 357.432796 0 0 0 112.400251-112.400251c34.282076 7.306016 68.564153 16.298036 102.284227 26.97606a551.323228 551.323228 0 0 1-188.83242 102.284228z m200.072446-107.342239a972.262165 972.262165 0 0 0-105.656236-27.538062 349.564778 349.564778 0 0 0 32.596073-72.498161L967.204154 449.601001a325.398725 325.398725 0 0 1-33.158074 74.184165c-41.026091-8.430019-82.614184-14.612033-124.202277-19.108042 4.49601-15.736035 7.868018-32.596073 11.240025-50.018112h-8.430019c-3.372008 17.422039-6.744015 34.282076-11.240025 50.018112a1537.635424 1537.635424 0 0 0-160.732357-6.744015v-40.46409h-7.306017v43.274096a1483.121302 1483.121302 0 0 0-158.484353 9.554021 495.685104 495.685104 0 0 1-11.240025-50.018111H455.221014c3.372008 17.422039 6.744015 33.720075 11.240025 49.45611-47.208105 5.058011-89.9202 11.802026-125.326279 17.98404a301.794672 301.794672 0 0 1-30.910069-65.192145l-7.306017 5.620012a359.680801 359.680801 0 0 0 29.224066 61.258137c-35.96808 6.744015-71.93616 15.174034-107.342239 25.290056a277.066617 277.066617 0 0 1-101.160226-202.882452v-4.49601H168.600375V337.200751h-44.9601A281.000626 281.000626 0 0 1 224.800501 148.36833c6.744015 0 46.646104 12.364028 109.028242 23.604053a424.872946 424.872946 0 0 0-25.290056 50.580113 21.356048 21.356048 0 0 0 8.430019 0 357.432796 357.432796 0 0 1 25.852057-50.580113c35.406079 6.182014 77.556173 12.926029 125.326279 17.98404a112.40025 112.40025 0 0 1-5.620012 21.356048h8.430019l5.058011-20.794047c48.332108 5.058011 101.722226 8.99202 158.484353 9.554021V224.800501h7.306016v-23.042052h14.612033a1080.166405 1080.166405 0 0 0 146.120325-6.744015 162.418362 162.418362 0 0 0 6.182014 26.414059h7.868017a99.474221 99.474221 0 0 0-6.182014-24.728055 1192.566655 1192.566655 0 0 0 125.888281-18.546041 417.004928 417.004928 0 0 1 25.290056 50.018111h7.868018a318.092708 318.092708 0 0 0-24.728056-50.018111 962.708144 962.708144 0 0 0 105.094234-27.538062A286.620638 286.620638 0 0 1 1152.102565 337.200751h-44.398099v8.430019h44.398099v4.49601a277.066617 277.066617 0 0 1-102.284228 206.81646z" fill="#2c2c2c" p-id="4308"></path><path d="M0 929.55007v-112.400251h116.334259v-47.208105h44.398099v46.646104H281.000626v112.40025h-44.9601v-3.934008H160.732358v81.490181h-44.398099v-80.366179H43.836098v3.372008z m43.836098-35.406079h72.498161v-45.522101H43.836098z m191.080425 0v-45.522101H160.732358v45.522101zM322.026717 779.495736h281.000626v224.8005H562.001251v-5.058011H361.366805v3.372007h-39.340088v-224.8005z m39.340088 193.32843H562.001251v-165.228368H361.366805z m5.620012-40.46409h74.746167V899.202002h-61.820138v-26.414059h61.820138v-23.604052H371.482827v-26.97606h180.964403v26.97606H481.073071v23.604052h61.820138V899.202002h-24.728055l27.538061 20.794046-15.736035 12.364028h24.728055v25.852058H366.986817z m146.120325 0l-28.100062-22.48005L505.801126 899.202002h-22.48005v33.158074zM698.005554 776.685729l-10.116022 23.604053h56.200125v26.97606H674.401502c-5.058011 7.868018-10.116023 15.174034-15.736035 22.48005h81.490181v26.97606h-34.844078v22.48005h40.464091v28.100063h-40.464091v37.654084l19.108043-6.744015a224.800501 224.800501 0 0 0 26.414059-11.802027v12.926029a24.166054 24.166054 0 0 0 0 8.99202v8.99202c-12.926029 5.058011-24.728055 9.554021-34.844078 14.612033s-23.604053 10.678024-39.340087 19.108042l-2.248005-9.554021a148.930332 148.930332 0 0 0-11.240025-22.48005 13.48803 13.48803 0 0 0 5.058011-4.49601 7.306016 7.306016 0 0 0 0-6.744015v-40.46409H618.201376V899.202002h46.646104v-22.48005h-26.414058v-7.306016l-14.050032 8.99202a148.36833 148.36833 0 0 0-10.116022-21.356048l-5.620013-8.99202 12.926029-8.430019a80.366179 80.366179 0 0 0 18.546041-26.414058 99.474221 99.474221 0 0 0 12.926029-33.158074v-11.802026a301.794672 301.794672 0 0 0 44.9601 8.430018z m50.580113 96.102214h15.174034a284.934634 284.934634 0 0 0-24.728055-20.794046l8.430018-8.99202a60.134134 60.134134 0 0 0 11.240025-21.356048 138.252308 138.252308 0 0 0 5.620013-26.414058v-14.050032l26.97606 4.49601h13.48803a85.42419 85.42419 0 0 1-6.744015 24.166054h20.232045v-46.646104h38.216085v46.646104h56.200125v26.414059h-56.200125v35.406079h73.622164V899.202002h-74.184165c0 7.868018 6.182014 15.736035 9.554021 23.042051a121.39227 121.39227 0 0 0 21.918049 28.662064 106.218237 106.218237 0 0 0 32.034071 24.728055l16.860038 7.868018a115.210257 115.210257 0 0 0-19.108043 17.98404l-5.058011 7.306016-21.918049-13.48803a163.542364 163.542364 0 0 1-18.546041-14.612032 168.600375 168.600375 0 0 1-14.050031-14.050032l-17.984041-21.356047a139.37631 139.37631 0 0 1-10.678023 14.612032 102.284228 102.284228 0 0 1-19.108043 19.108043 228.734509 228.734509 0 0 1-26.97606 18.546041 168.600375 168.600375 0 0 1-31.47207 13.48803l-8.430019-9.554021a105.094234 105.094234 0 0 0-16.860037-14.612033 135.442302 135.442302 0 0 0 63.506141-31.47207 78.118174 78.118174 0 0 0 24.166054-42.150094V899.202002h-67.44015z m70.812157 0v-35.406079h-29.224065c-2.810006 6.182014-6.182014 12.364028-9.554021 18.546042l-11.802026 16.860037zM958.774135 975.072171a136.004303 136.004303 0 0 0 20.232045-15.174034l-15.174034-17.98404a84.300188 84.300188 0 0 1-12.926029-23.042051c-2.810006-8.99202-5.058011-14.612033-5.620012-17.422039v-8.99202h35.406079v10.678024a16.298036 16.298036 0 0 0 4.49601 11.802026 40.46409 40.46409 0 0 0 6.182013 10.678024l4.49601 5.058011v-46.646104h-52.266116v-22.48005l11.802026-7.306016a197.82444 197.82444 0 0 0 29.786067-42.150094h-43.836098V786.801752h87.110194l5.058011 11.802026c-7.306016 12.364028-12.364028 21.918049-16.298036 27.538061l-14.612033 20.794047-6.744015 11.240025h37.654084v61.258136a100.598224 100.598224 0 0 1-5.058011 25.852058l-5.058011 15.174034a130.946292 130.946292 0 0 0 68.002151 19.108042c29.224065 0 56.200125 2.810006 84.300188 0a722.733609 722.733609 0 0 0 74.746166-5.058011 84.862189 84.862189 0 0 0-7.306016 23.042051v9.554021h-103.970232a644.053434 644.053434 0 0 1-65.754146-3.372007q-16.860038 0-33.720075-6.744015a78.680175 78.680175 0 0 1-21.356048-8.99202l-11.802026-7.306016-21.356047 16.298036-20.232045 11.802026h-2.810007l-11.802026-10.678024-12.364028-10.116022a130.38429 130.38429 0 0 0 20.794047-12.926029z m79.804177-156.798349h74.184166v-10.678024h-64.068143v-24.728055h64.068143v-12.926029h39.340087v12.926029h70.250157v35.406079h21.918048V843.001877h-21.918048v36.530081H1152.102565v9.554022h70.250157v25.852057H1152.102565v11.240025H1236.402753v25.290057h-84.300188v20.232045h-39.340087v-20.232045h-74.184166v-25.290057h74.184166v-11.240025h-64.068143v-25.852057h64.068143v-9.554022h-64.068143v-25.290056h64.068143V843.001877h-74.184166z m112.400251 0H1180.202628v-10.678024h-28.100063z m0 35.96808H1180.202628V843.001877h-28.100063z" fill="#2c2c2c" p-id="4309"></path></svg>