<?xml version="1.0" standalone="no"?><!DOCTYPE svg PUBLIC "-//W3C//DTD SVG 1.1//EN" "http://www.w3.org/Graphics/SVG/1.1/DTD/svg11.dtd"><svg t="1703689444781" class="icon" viewBox="0 0 1024 1024" version="1.1" xmlns="http://www.w3.org/2000/svg" p-id="4371" xmlns:xlink="http://www.w3.org/1999/xlink" width="200" height="200"><path d="M128.085 908A183.502 183.502 0 0 1 64 862.517a473.374 473.374 0 0 0 82.346-217.57 55.502 55.502 0 0 1-30.225-45.758 55.49 55.49 0 0 1 23.85-49.376A309.201 309.201 0 0 1 184.97 371.84l-84.069-35.98c-24.807-11.397-24.91-29.508-0.413-40.733l399.669-170.709c12.556-11.223 31.546-11.223 44.101 0l397.085 172.155c24.704 11.294 24.91 29.405 0.414 40.595L547.772 507.91c-14.879 8.66-26.408 10.19-44.102 0l-192.943-82.635 225.847-114.07c14.818-7.77 20.795-25.886 13.506-40.939a29.693 29.693 0 0 0-17.187-15.333 29.718 29.718 0 0 0-22.986 1.56L255.255 385.13c-35.143 26.891-54.3 80.879-55.126 164.478a55.49 55.49 0 0 1 23.813 50.332 55.504 55.504 0 0 1-31.876 45.662c5.995 110.902 13.437 220.393-63.981 262.399z m385.887-33.123c-125.482-3.626-211.468-37.794-257.96-102.501V671.458c37.308-43.944 37.308-108.413 0-152.357v-20.659a20.175 20.175 0 0 1 5.768-14.328c3.748-3.822 8.862-6 14.217-6.055 2.668 0.002 5.307 0.553 7.752 1.618l215.098 92.103a68.744 68.744 0 0 0 54.61 0l250.585-108.94a19.892 19.892 0 0 1 15.382-0.132 19.873 19.873 0 0 1 10.872 10.875 20.41 20.41 0 0 1 1.586 7.988v290.874c-53.497 62.228-139.471 96.212-257.925 101.95l-59.985 0.551v-0.069z m8.545-156.214v31.987h-57.125c-11.699 0.465-20.943 10.077-20.943 21.778 0 11.7 9.244 21.312 20.943 21.777h57.125v42.11a21.414 21.414 0 0 0 10.714 18.55 21.443 21.443 0 0 0 21.433 0 21.414 21.414 0 0 0 10.714-18.55v-42.11h57.125c11.699-0.465 20.943-10.077 20.943-21.777 0-11.7-9.244-21.313-20.943-21.778h-57.16v-32.021h57.125c11.7-0.465 20.943-10.078 20.943-21.778s-9.244-21.312-20.943-21.777h-30.457l45.1-42.936c8.644-8.286 9.088-21.953 1-30.781a21.16 21.16 0 0 0-30.286-1.033l-64.842 61.7-63.086-59.152a21.163 21.163 0 0 0-30.285 1.24c-8.025 8.892-7.474 22.561 1.24 30.78l42.792 40.182h-28.287c-11.698 0.465-20.943 10.077-20.943 21.777 0 11.7 9.245 21.313 20.943 21.778h57.125l0.035 0.034z" fill="#2c2c2c" p-id="4372"></path></svg>